# xmcd
#
# Track frame offsets:
#	150
#	14394
#	29199
#	42250
#	55175
#	71541
#	87515
#	100874
#	116308
#	132102
#	150567
#	170442
#	185156
#	200033
#	210326
#	225534
#	240398
#	257736
#	269113
#	283791
#
# Disc length: 3995 seconds
#
# Revision: 2
# Processed by: cddbd v1.5.2PL0 Copyright (c) Steve Scherf et al.
# Submitted via: EZCDAudioConverter 9.0.7.1
#
DISCID=220f9914
DTITLE=Die Campbells - Vat my vas
DYEAR=2006
DGENRE=Afrikaans
TTITLE0=Dans Poppie
TTITLE1=Styf Vas
TTITLE2=Die Liefde Is Bitter
TTITLE3=Vat My Vas
TTITLE4=As die Nag Verdwyn
TTITLE5=Free Electric Band
TTITLE6=Dis Lekker (Om Hier te Wees)
TTITLE7=Dans In die Donker
TTITLE8=500 Miles
TTITLE9=Angelina
TTITLE10=Party Medley
TTITLE11=Hier Kom 'n Partie
TTITLE12=Games People Play
TTITLE13=Bad Moon Rising
TTITLE14=Bokkie Ek Lui Jou Klokkie
TTITLE15=Green Door
TTITLE16=I Still Haven't Found What I'm Looking for
TTITLE17=Viva Suid-Afrika! (Kom Ons Gaan Braai)
TTITLE18=Cecilia
TTITLE19=Sixties Medley
EXTD=
EXTT0=
EXTT1=
EXTT2=
EXTT3=
EXTT4=
EXTT5=
EXTT6=
EXTT7=
EXTT8=
EXTT9=
EXTT10=
EXTT11=
EXTT12=
EXTT13=
EXTT14=
EXTT15=
EXTT16=
EXTT17=
EXTT18=
EXTT19=
PLAYORDER=
